<svg width="175" height="317" viewBox="0 0 175 317" fill="none" xmlns="http://www.w3.org/2000/svg">
<path d="M72.7551 36.7177C72.7551 16.8436 56.5136 0.630503 36.6046 0.630504C16.6956 0.630505 0.454081 16.8436 0.454082 36.7177C0.454082 52.9308 11.4564 67.0519 26.1262 71.2359L26.1262 124.059C11.4564 128.766 0.454086 142.364 0.454087 158.577C0.454088 174.791 11.4564 188.912 26.1262 193.096L26.1262 245.919C11.4564 250.626 0.454092 264.224 0.454092 280.437C0.454093 300.311 16.6956 316.524 36.6046 316.524C56.5136 316.524 72.7552 300.311 72.7552 280.437C72.7552 265.27 63.3246 252.195 49.7026 246.965L49.7026 228.137C65.4203 246.442 86.901 260.04 111.001 264.747L111.001 271.546C111.001 282.006 119.384 290.374 129.863 290.374L155.535 290.374C166.013 290.374 174.396 282.006 174.396 271.546L174.396 232.321C174.396 221.861 166.013 213.493 155.535 213.493L129.863 213.493C119.384 213.493 111.001 221.861 111.001 232.321L111.001 240.166C85.3292 233.89 63.8485 215.062 53.894 189.958C64.8963 183.682 72.7552 172.176 72.7552 158.577C72.7552 145.502 65.4203 133.996 54.9418 127.72C64.8963 103.662 85.8532 86.403 111.001 80.127L111.001 85.357C111.001 95.8171 119.384 104.185 129.862 104.185L155.535 104.185C166.013 104.185 174.396 95.8171 174.396 85.357L174.396 46.1318C174.396 35.6717 166.013 27.3037 155.535 27.3037L129.862 27.3037C119.384 27.3037 111.001 35.6717 111.001 46.1318L111.001 56.0689C86.901 60.7759 64.8963 73.851 49.7026 92.1561L49.7026 70.1899C63.3246 64.9599 72.7551 51.8848 72.7551 36.7177ZM24.0305 36.7177C24.0305 29.9187 29.7936 24.1656 36.6046 24.1656C43.4156 24.1656 49.1787 29.9187 49.1787 36.7177C49.1787 43.5168 43.4156 49.2698 36.6046 49.2698C29.7936 49.2698 24.0305 43.5168 24.0305 36.7177ZM49.1787 280.437C49.1787 287.236 43.4156 292.989 36.6046 292.989C29.7937 292.989 24.0305 287.236 24.0305 280.437C24.0305 273.638 29.7937 267.885 36.6046 267.885C43.4156 267.885 49.1787 273.638 49.1787 280.437ZM150.819 237.028L150.819 266.839L134.578 266.839L134.578 237.028L150.819 237.028ZM150.819 50.3158L150.819 80.127L134.578 80.127L134.578 50.3158L150.819 50.3158ZM49.1787 158.577C49.1787 165.377 43.4156 171.13 36.6046 171.13C29.7936 171.13 24.0305 165.377 24.0305 158.577C24.0305 151.778 29.7936 146.025 36.6046 146.025C43.4156 146.025 49.1787 151.778 49.1787 158.577Z" fill="#173742"/>
</svg>
