<svg width="97" height="97" viewBox="0 0 97 97" fill="none" xmlns="http://www.w3.org/2000/svg">
<path d="M93.0624 89.7044H7.19554V3.67772C7.19554 1.75891 5.59653 0 3.51782 0C1.43911 0 0 1.75891 0 3.67772V90.1841C0 93.8619 3.03812 96.9 6.71584 96.9H93.0624C94.9812 96.9 96.7401 95.301 96.7401 93.2223C96.7401 91.1436 94.9812 89.7044 93.0624 89.7044Z" fill="#173742"/>
<path d="M91.4633 32.6199H72.7549C70.8361 32.6199 69.0772 34.2189 69.0772 36.2976C69.0772 38.3763 70.6762 39.9753 72.7549 39.9753H83.6282L75.1534 47.3308H54.2064C53.0871 47.3308 51.9678 47.8105 51.3282 48.7699L39.9752 63.6407H23.1856C21.2668 63.6407 19.5079 65.2397 19.5079 67.3184C19.5079 69.3971 21.1069 70.9961 23.1856 70.9961H41.7341C42.8534 70.9961 43.9727 70.5164 44.6123 69.557L55.9653 54.6862H76.5925C77.392 54.6862 78.3514 54.3664 78.991 53.7268L89.5445 44.4525V56.7649C89.5445 58.6837 91.1435 60.4426 93.2222 60.4426C95.3009 60.4426 96.8999 58.8436 96.8999 56.7649V37.7367C96.74 35.0184 94.3415 32.6199 91.4633 32.6199Z" fill="#173742"/>
</svg>
