<svg width="222" height="82" viewBox="0 0 222 82" fill="none" xmlns="http://www.w3.org/2000/svg">
<path d="M38.0362 65.7915C38.2024 66.5849 37.8446 67.2702 36.9628 67.8472C36.0811 68.4242 35.0366 69.0571 33.8295 69.7459C32.6554 70.3841 31.5187 70.9928 30.4194 71.5718C29.3114 72.109 28.3286 72.62 27.4711 73.1048C26.6466 73.539 26.1431 73.8406 25.9605 74.0097C25.978 74.0932 25.9999 74.1976 26.0261 74.3229C26.0523 74.4481 26.0995 74.569 26.1675 74.6856L26.6703 76.1496C26.749 76.5254 26.7476 76.8309 26.666 77.0659C26.6263 77.2922 26.4393 77.4404 26.1052 77.5103C25.7294 77.5891 25.4361 77.5415 25.2253 77.3677C25.0475 77.1434 24.8654 76.8982 24.6789 76.6321C24.5254 76.3155 24.3719 75.9989 24.2184 75.6823C24.1067 75.357 23.9498 75.1283 23.7478 74.9962C23.6642 75.0137 23.3476 75.1672 22.798 75.4567C22.2483 75.7462 21.5404 76.1125 20.6741 76.5555C19.8496 76.9897 18.9086 77.492 17.8511 78.0622C16.8265 78.582 15.8185 79.0765 14.827 79.5457C13.8354 80.0149 12.8978 80.4293 12.0141 80.7888C11.1303 81.1483 10.4379 81.3805 9.93676 81.4854C8.80922 81.7216 8.17111 81.4847 8.02241 80.7748C7.9087 80.2319 7.97176 79.8046 8.2116 79.4928C8.4932 79.1723 8.82969 78.9056 9.22105 78.6929C9.29582 78.6336 9.67068 78.4461 10.3456 78.1304C11.0623 77.8059 11.9208 77.4299 12.9211 77.0024C13.9126 76.5332 14.9624 76.0299 16.0705 75.4927C17.2203 74.9467 18.2701 74.4435 19.2199 73.983C20.2114 73.5137 20.9985 73.1091 21.5812 72.7691C22.2056 72.4204 22.5091 72.2042 22.4916 72.1207C22.4391 71.8701 22.2385 71.4326 21.8897 70.8082C21.5827 70.175 21.2845 69.5836 20.995 69.0339L20.3567 67.8599C19.2123 65.3096 18.1887 62.7123 17.2861 60.0679C16.3834 57.4234 15.5522 54.8076 14.7923 52.2204C14.6913 52.1544 14.5781 52.1345 14.4529 52.1608C14.2441 52.2045 13.7449 52.527 12.9554 53.1283C12.1659 53.7296 11.3225 54.3858 10.4252 55.0968C9.5192 55.7661 8.67144 56.4014 7.88194 57.0027C7.1342 57.5952 6.67681 57.909 6.50977 57.944C6.21744 58.0052 5.89888 57.9412 5.55407 57.7518C5.25103 57.5538 5.07327 57.3294 5.02078 57.0789C4.95081 56.7448 5.14353 56.3121 5.59894 55.7808C6.04561 55.2077 6.61756 54.6084 7.31479 53.9828C8.04504 53.3068 8.84667 52.6593 9.71969 52.0405C10.6257 51.3712 11.4822 50.7777 12.2892 50.2599C13.1292 49.6917 13.8406 49.2375 14.4232 48.8975C15.0477 48.5488 15.4643 48.3525 15.6731 48.3088C16.0072 48.2388 16.4325 48.0843 16.9492 47.8453C17.4658 47.6063 18.0199 47.3377 18.6113 47.0395C19.2027 46.7412 19.7985 46.4639 20.3987 46.2074C21.0406 45.9421 21.6121 45.757 22.1132 45.6521C22.6561 45.5384 22.9669 45.6694 23.0456 46.0453C23.0894 46.2541 23.0408 46.4386 22.9 46.5989L21.1884 47.4805C20.7553 47.702 20.2848 47.9531 19.7769 48.2339C19.302 48.4641 18.8568 48.7318 18.4411 49.0368C18.0585 49.2913 17.7473 49.5744 17.5074 49.8862C17.3006 50.1475 17.2234 50.4034 17.2759 50.654C17.4946 51.698 17.8877 53.0542 18.4551 54.7227C19.0555 56.3406 19.7075 58.1003 20.4109 60.0018C21.1474 61.8528 21.9134 63.7412 22.7091 65.667C23.5048 67.5928 24.2116 69.4064 24.8296 71.1079L35.4387 65.8778C35.6805 65.7836 35.918 65.6685 36.151 65.5325C36.3424 65.4052 36.538 65.2988 36.7381 65.2133C36.9381 65.1278 37.1217 65.0676 37.2887 65.0326C37.6646 64.9539 37.9137 65.2068 38.0362 65.7915ZM60.007 62.4973C60.0595 62.7479 60.0285 63.0159 59.9139 63.3015C59.7993 63.587 59.6386 63.8604 59.4318 64.1217C59.2667 64.3743 59.0555 64.6147 58.7982 64.8429C58.5739 65.0207 58.3573 65.1315 58.1485 65.1752C57.4386 65.3239 56.4893 65.3702 55.3005 65.314C54.1447 65.2074 53.1628 64.8899 52.3547 64.3617C51.4961 63.8005 50.6947 63.0965 49.9506 62.2497C49.1978 61.3611 48.2862 60.0264 47.2156 58.2453C47.1411 60.179 46.9787 62.1093 46.7285 64.0362C46.5199 65.9544 45.905 67.8051 44.8835 69.5884C44.8175 69.6894 44.701 69.7574 44.5339 69.7924C44.2416 69.8536 43.8978 69.773 43.5025 69.5507C43.1071 69.3283 42.8789 69.071 42.8176 68.7787C42.7564 68.4864 42.5747 67.8269 42.2725 66.8004C42.0033 65.7234 41.6914 64.5464 41.3367 63.2693C40.9733 61.9504 40.6099 60.6316 40.2464 59.3128C39.916 57.9434 39.659 56.8203 39.4753 55.9433C39.3878 55.5257 39.295 54.9784 39.1968 54.3015C39.0899 53.5828 39.0883 52.9511 39.1921 52.4062C39.2164 52.3139 39.3276 52.1163 39.5257 51.8132C39.7655 51.5014 40.0525 51.3106 40.3865 51.2406C40.6789 51.1794 40.8853 51.3323 41.0058 51.6994C41.1262 52.0665 41.2346 52.4797 41.3308 52.9391L43.4039 62.8363C43.4476 63.0451 43.5297 63.333 43.6502 63.7001C43.8124 64.0585 43.9737 64.3081 44.134 64.4489C44.3834 63.3504 44.5561 62.0936 44.652 60.6786C44.781 59.213 44.9065 57.8353 45.0287 56.5456C45.1421 55.214 45.2993 54.0913 45.5002 53.1774C45.6924 52.2217 45.9764 51.7045 46.3522 51.6257C46.7698 51.5383 47.1214 51.5518 47.407 51.6664C47.6925 51.7809 47.9713 52.0713 48.2433 52.5374C48.7058 53.7047 49.1002 54.7555 49.4267 55.6898C49.7444 56.5823 50.0655 57.3869 50.39 58.1036C50.7562 58.8115 51.1764 59.4646 51.6504 60.0628C52.1575 60.6105 52.781 61.0901 53.5212 61.5018C54.2195 61.9222 54.9499 62.1834 55.7123 62.2853C56.5165 62.3784 57.19 62.3681 57.7329 62.2544C57.9835 62.2019 58.2462 62.1033 58.521 61.9585C58.7871 61.772 58.9828 61.6656 59.108 61.6394C59.2751 61.6044 59.4519 61.7199 59.6384 61.986C59.8666 62.2434 59.9895 62.4138 60.007 62.4973ZM75.52 37.7351C75.1084 38.4752 74.467 39.2634 73.5959 40.0997C72.7162 40.8943 71.8276 41.6471 70.9303 42.3582C70.033 43.0692 69.2479 43.6914 68.5749 44.2247C67.8932 44.7162 67.5655 45.0246 67.5917 45.1499C67.618 45.2752 67.7802 45.6335 68.0785 46.225C68.3767 46.8164 68.7221 47.5287 69.1146 48.3619C69.5401 49.1447 69.9743 49.9692 70.4173 50.8354C70.8603 51.7017 71.2397 52.4722 71.5554 53.1472C71.7264 53.5473 71.9445 54.0683 72.2098 54.7102C72.475 55.3522 72.7194 55.9985 72.9428 56.6491C73.2081 57.2911 73.4393 57.8747 73.6365 58.4001C73.825 58.8837 73.9236 59.1464 73.9324 59.1882C74.0636 59.8146 74.0948 60.4838 74.0259 61.1957C73.9571 61.9076 73.693 62.3116 73.2336 62.4078C72.983 62.4603 72.7315 62.404 72.4789 62.239C72.2264 62.0739 71.9904 61.8836 71.7709 61.668C71.5426 61.4107 71.3604 61.1655 71.2244 60.9324C71.0884 60.6993 71.0073 60.5202 70.9811 60.3949C70.9636 60.3114 70.9373 60.1861 70.9024 60.019C70.9091 59.8432 70.8906 59.6509 70.8469 59.4421C70.6807 58.6487 70.3149 57.5265 69.7494 56.0756C69.5697 55.6338 69.254 54.9588 68.8022 54.0508C68.3505 53.1428 67.8944 52.2139 67.4339 51.2641C66.8966 50.1561 66.2958 48.9524 65.6313 47.653C65.3418 47.1033 65.1761 46.8329 65.1344 46.8416C64.842 46.9029 64.3803 47.1957 63.7491 47.7203C63.1509 48.1943 62.4702 48.7946 61.7069 49.5212C60.9349 50.206 60.1343 50.9622 59.305 51.7898C58.4669 52.5756 57.6872 53.3275 56.9657 54.0453C56.2354 54.7214 55.6173 55.3085 55.1114 55.8068C54.555 56.2721 54.2141 56.5179 54.0889 56.5441C53.546 56.6578 53.0681 56.5618 52.6553 56.2559C52.2425 55.95 51.988 55.5674 51.8918 55.1081C51.8393 54.8575 52.1199 54.4282 52.7336 53.8201C53.2968 53.179 54.0392 52.4568 54.9608 51.6535C55.8405 50.8589 56.8204 50.0216 57.9002 49.1415C58.9383 48.2702 59.906 47.479 60.8033 46.768C61.7423 46.0482 62.5109 45.4513 63.1091 44.9772C63.7491 44.4944 64.0691 44.253 64.0691 44.253C63.2908 42.4108 62.619 40.7642 62.0536 39.3133C61.5736 38.0625 61.1155 36.916 60.6793 35.874C60.2848 34.8232 60.0788 34.2561 60.0613 34.1726C59.9476 33.6297 59.9689 33.2111 60.1253 32.9168C60.3146 32.572 60.5554 32.369 60.8477 32.3077C61.3071 32.2115 61.665 32.4635 61.9215 33.0637C62.8532 35.2225 63.6907 37.1395 64.4339 38.8147C65.2189 40.4812 65.913 41.818 66.5163 42.825C66.8746 42.6628 67.4738 42.2975 68.3138 41.7292C69.1451 41.1192 70.0137 40.4795 70.9197 39.8102C71.8258 39.1409 72.6405 38.5562 73.364 38.0559C74.1205 37.5051 74.5614 37.2166 74.6867 37.1903C74.9372 37.1379 75.1009 37.1908 75.1776 37.3491C75.2961 37.4986 75.4103 37.6273 75.52 37.7351ZM93.2328 49.4568C93.4252 50.3755 93.4836 51.2787 93.408 52.1664C93.3324 53.0541 93.1514 53.8549 92.865 54.5687C92.5786 55.2826 92.1824 55.8887 91.6765 56.387C91.2036 56.8348 90.6331 57.1287 89.9649 57.2686C88.7956 57.5135 87.8069 57.3719 86.9988 56.8437C86.1906 56.3155 85.5068 55.6522 84.9473 54.854C84.4295 54.047 84.0161 53.2181 83.7072 52.3674C83.4312 51.4662 83.2451 50.7859 83.1489 50.3265C82.9915 49.5748 82.9209 48.7177 82.9373 47.7553C82.9867 46.7423 83.1162 45.7997 83.3258 44.9276C83.5773 44.0466 83.8967 43.2823 84.2841 42.6344C84.6715 41.9866 85.1366 41.6058 85.6795 41.4921C85.8048 41.4658 86.0015 41.4682 86.2695 41.4993C86.5794 41.5216 86.8979 41.5856 87.2252 41.6914C87.5525 41.7972 87.8468 41.9536 88.1081 42.1604C88.4112 42.3585 88.6394 42.6158 88.7929 42.9324C89.2611 42.8779 89.7554 42.9488 90.276 43.1449C90.7966 43.341 91.0953 43.5182 91.172 43.6765C91.7335 44.6923 92.1697 45.7343 92.4807 46.8026C92.8334 47.8621 93.0841 48.7468 93.2328 49.4568ZM90.1778 48.9197C90.0466 48.2932 89.8484 47.6591 89.5831 47.0172C89.3092 46.3335 88.9099 45.676 88.3853 45.0448C88.3106 45.1041 88.2105 45.1468 88.0853 45.1731C87.9182 45.208 87.7677 45.2178 87.6337 45.2023C87.5414 45.178 87.4535 45.1746 87.37 45.1921C86.8689 45.2971 86.5027 45.5263 86.2717 45.8799C86.0318 46.1917 85.8765 46.5947 85.8057 47.0891C85.7678 47.5329 85.7805 48.0098 85.8437 48.5197C85.9069 49.0295 85.9867 49.5142 86.0829 49.9735C86.1791 50.4329 86.3093 50.9505 86.4735 51.5264C86.629 52.0606 86.8219 52.5651 87.0521 53.04C87.3241 53.5061 87.6248 53.9008 87.954 54.2242C88.2746 54.5058 88.6437 54.6029 89.0613 54.5154C89.4789 54.4279 89.7901 54.1448 89.9949 53.6659C90.191 53.1454 90.3114 52.5752 90.356 51.9556C90.4006 51.336 90.3869 50.7503 90.3149 50.1987C90.276 49.5966 90.2303 49.1702 90.1778 48.9197ZM119.589 50.0174C119.642 50.268 119.61 50.536 119.496 50.8216C119.381 51.1071 119.221 51.3806 119.014 51.6418C118.849 51.8944 118.638 52.1348 118.38 52.363C118.156 52.5408 117.939 52.6516 117.731 52.6953C117.021 52.844 116.071 52.8903 114.883 52.8341C113.727 52.7275 112.745 52.41 111.937 51.8818C111.078 51.3206 110.277 50.6166 109.533 49.7698C108.78 48.8813 107.868 47.5465 106.798 45.7654C106.723 47.6991 106.561 49.6294 106.31 51.5563C106.102 53.4745 105.487 55.3252 104.466 57.1085C104.4 57.2095 104.283 57.2775 104.116 57.3125C103.824 57.3737 103.48 57.2931 103.084 57.0708C102.689 56.8485 102.461 56.5911 102.4 56.2988C102.338 56.0065 102.157 55.3471 101.855 54.3205C101.585 53.2435 101.273 52.0665 100.919 50.7894C100.555 49.4705 100.192 48.1517 99.8285 46.8329C99.4981 45.4635 99.241 44.3404 99.0573 43.4634C98.9698 43.0458 98.877 42.4985 98.7788 41.8216C98.6719 41.1029 98.6703 40.4712 98.7742 39.9263C98.7984 39.834 98.9096 39.6364 99.1077 39.3333C99.3475 39.0215 99.6345 38.8307 99.9686 38.7607C100.261 38.6995 100.467 38.8524 100.588 39.2195C100.708 39.5866 100.817 39.9998 100.913 40.4592L102.986 50.3564C103.03 50.5652 103.112 50.8532 103.232 51.2203C103.394 51.5786 103.556 51.8282 103.716 51.969C103.965 50.8705 104.138 49.6137 104.234 48.1987C104.363 46.7331 104.489 45.3555 104.611 44.0657C104.724 42.7341 104.881 41.6114 105.082 40.6975C105.274 39.7418 105.558 39.2246 105.934 39.1459C106.352 39.0584 106.703 39.0719 106.989 39.1865C107.275 39.301 107.553 39.5914 107.825 40.0575C108.288 41.2248 108.682 42.2756 109.009 43.2099C109.326 44.1024 109.648 44.907 109.972 45.6237C110.338 46.3316 110.758 46.9847 111.232 47.5829C111.739 48.1306 112.363 48.6102 113.103 49.0219C113.802 49.4423 114.532 49.7035 115.294 49.8054C116.099 49.8985 116.772 49.8882 117.315 49.7745C117.565 49.722 117.828 49.6234 118.103 49.4786C118.369 49.2921 118.565 49.1857 118.69 49.1595C118.857 49.1245 119.034 49.24 119.22 49.5061C119.449 49.7635 119.572 49.9339 119.589 50.0174ZM151.458 37.7842C151.615 38.5359 151.457 39.5498 150.984 40.826C150.543 42.0518 149.847 43.3091 148.897 44.598C147.946 45.887 146.777 47.0691 145.389 48.1444C143.993 49.178 142.459 49.8697 140.789 50.2196C140.037 50.377 139.217 50.4179 138.33 50.3423C137.442 50.2667 136.553 50.0823 135.664 49.7891C134.765 49.4542 133.933 49.0183 133.166 48.4813C132.391 47.9026 131.766 47.2053 131.29 46.3896C131.092 46.6926 130.866 47.1758 130.613 47.8392C130.401 48.4938 130.152 49.1781 129.866 49.892C129.57 50.5641 129.22 51.1823 128.816 51.7466C128.402 52.2692 127.924 52.5873 127.381 52.7011C126.838 52.8148 126.322 52.6395 125.832 52.1754C125.375 51.6607 124.973 51.0912 124.624 50.4667C124.267 49.8005 123.98 49.163 123.766 48.5541C123.551 47.9452 123.435 47.5989 123.417 47.5154C123.312 47.0143 123.262 46.0441 123.265 44.6047C123.26 43.1237 123.393 41.5702 123.662 39.9444C123.932 38.3185 124.383 36.8291 125.015 35.4761C125.689 34.1144 126.631 33.3067 127.843 33.0531C128.302 32.9568 128.638 33.1044 128.851 33.4958C129.096 33.8366 129.259 34.195 129.337 34.5708L129.731 36.4501C129.975 36.5734 130.21 36.6549 130.436 36.6947C130.695 36.684 130.922 36.7238 131.115 36.814C131.341 36.8538 131.518 36.9694 131.645 37.1607C131.814 37.3432 131.947 37.6642 132.043 38.1236C132.104 38.4159 132.14 38.6917 132.151 38.951C132.153 39.1686 132.176 39.3817 132.22 39.5906C132.447 40.6763 132.754 41.7237 133.139 42.7327C133.525 43.7418 134.056 44.6114 134.732 45.3416C135.399 46.0301 136.228 46.554 137.219 46.9132C138.201 47.2306 139.423 47.2362 140.884 46.9301C142.722 46.5452 144.188 45.8457 145.284 44.8317C146.412 43.767 147.298 42.6879 147.94 41.5942C148.616 40.4501 149.126 39.4496 149.47 38.593C149.805 37.6946 150.139 37.2104 150.473 37.1404C151.016 37.0267 151.344 37.2413 151.458 37.7842ZM128.894 39.6333C128.859 39.4663 128.786 39.3288 128.677 39.221C128.558 39.0715 128.486 38.9341 128.46 38.8088C128.425 38.6418 128.436 38.4869 128.493 38.3441C128.55 38.2013 128.557 38.0255 128.513 37.8167C128.487 37.6914 128.428 37.6167 128.336 37.5924C128.235 37.5264 128.175 37.4516 128.158 37.3681C127.799 37.5303 127.477 37.9684 127.191 38.6823C126.946 39.3874 126.723 40.1969 126.522 41.1108C126.363 42.016 126.271 42.929 126.246 43.8497C126.212 44.7286 126.252 45.4395 126.366 45.9824C126.427 46.2747 126.611 46.7375 126.918 47.3707C127.225 48.0039 127.505 48.403 127.757 48.568C128.161 46.9577 128.511 45.4023 128.807 43.9017C129.145 42.3924 129.174 40.9696 128.894 39.6333ZM165.627 18.8615C165.215 19.6016 164.574 20.3898 163.703 21.2261C162.823 22.0207 161.935 22.7735 161.037 23.4846C160.14 24.1956 159.355 24.8178 158.682 25.3511C158 25.8426 157.673 26.151 157.699 26.2763C157.725 26.4016 157.887 26.7599 158.186 27.3514C158.484 27.9428 158.829 28.6551 159.222 29.4883C159.647 30.2711 160.081 31.0956 160.524 31.9618C160.967 32.8281 161.347 33.5986 161.663 34.2736C161.834 34.6737 162.052 35.1947 162.317 35.8366C162.582 36.4786 162.826 37.1249 163.05 37.7755C163.315 38.4175 163.546 39.0011 163.744 39.5265C163.932 40.0101 164.031 40.2728 164.039 40.3146C164.171 40.941 164.202 41.6102 164.133 42.3221C164.064 43.034 163.8 43.438 163.341 43.5342C163.09 43.5867 162.839 43.5304 162.586 43.3654C162.334 43.2003 162.097 43.01 161.878 42.7944C161.65 42.5371 161.468 42.2919 161.332 42.0588C161.196 41.8257 161.114 41.6466 161.088 41.5213C161.071 41.4378 161.044 41.3125 161.009 41.1454C161.016 40.9696 160.998 40.7773 160.954 40.5685C160.788 39.7751 160.422 38.6529 159.857 37.202C159.677 36.7602 159.361 36.0852 158.909 35.1772C158.458 34.2692 158.001 33.3403 157.541 32.3905C157.004 31.2825 156.403 30.0788 155.738 28.7794C155.449 28.2297 155.283 27.9593 155.241 27.968C154.949 28.0293 154.487 28.3221 153.856 28.8467C153.258 29.3207 152.577 29.921 151.814 30.6476C151.042 31.3324 150.241 32.0886 149.412 32.9162C148.574 33.702 147.794 34.4539 147.073 35.1717C146.343 35.8478 145.724 36.4349 145.219 36.9332C144.662 37.3985 144.321 37.6443 144.196 37.6705C143.653 37.7842 143.175 37.6882 142.762 37.3823C142.35 37.0764 142.095 36.6938 141.999 36.2345C141.946 35.9839 142.227 35.5546 142.841 34.9465C143.404 34.3054 144.146 33.5832 145.068 32.7799C145.948 31.9853 146.927 31.148 148.007 30.2679C149.045 29.3966 150.013 28.6054 150.91 27.8944C151.849 27.1746 152.618 26.5777 153.216 26.1036C153.856 25.6208 154.176 25.3794 154.176 25.3794C153.398 23.5372 152.726 21.8906 152.161 20.4397C151.681 19.1889 151.223 18.0424 150.786 17.0004C150.392 15.9496 150.186 15.3825 150.168 15.299C150.055 14.7561 150.076 14.3375 150.232 14.0432C150.422 13.6984 150.663 13.4954 150.955 13.4341C151.414 13.3379 151.772 13.5899 152.029 14.1901C152.96 16.3489 153.798 18.2659 154.541 19.9411C155.326 21.6076 156.02 22.9444 156.623 23.9514C156.982 23.7892 157.581 23.4239 158.421 22.8556C159.252 22.2456 160.121 21.6059 161.027 20.9366C161.933 20.2673 162.748 19.6826 163.471 19.1823C164.228 18.6315 164.668 18.343 164.794 18.3167C165.044 18.2643 165.208 18.3172 165.285 18.4755C165.403 18.625 165.517 18.7537 165.627 18.8615ZM172.622 16.8733C172.639 16.9568 172.528 17.1545 172.288 17.4663C172.048 17.7781 171.75 18.1239 171.394 18.5037C171.07 18.8329 170.722 19.1457 170.348 19.442C169.974 19.7383 169.662 19.9126 169.411 19.9651C169.244 20.0001 169.015 20.0482 168.722 20.1094C168.463 20.1202 168.174 20.0935 167.855 20.0295C167.579 19.9567 167.314 19.8377 167.061 19.6727C166.8 19.4658 166.63 19.1745 166.551 18.7986C166.429 18.214 166.524 17.6274 166.837 17.0388C167.141 16.4084 167.627 16.0233 168.295 15.8833C168.42 15.8571 168.705 15.8629 169.148 15.9007C169.625 15.888 170.111 15.917 170.605 15.9879C171.1 16.0587 171.536 16.1635 171.914 16.3023C172.333 16.4324 172.569 16.6227 172.622 16.8733ZM179.596 39.8679C179.657 40.1603 179.48 40.4589 179.064 40.7639C178.69 41.0602 178.399 41.2302 178.19 41.274C177.773 41.3614 177.34 41.1687 176.892 40.6958C176.444 40.2229 176.021 39.6577 175.622 39.0003C175.222 38.3428 174.874 37.7184 174.575 37.127C174.268 36.4938 174.047 36.0607 173.911 35.8276C173.698 35.4362 173.426 34.9701 173.095 34.4292C172.764 33.8883 172.437 33.3682 172.114 32.8691C171.833 32.3612 171.587 31.9116 171.374 31.5202C171.161 31.1288 171.05 30.9123 171.042 30.8705C170.919 30.2859 170.91 29.7211 171.014 29.1763C171.159 28.6227 171.399 28.3109 171.733 28.2409C172.109 28.1622 172.567 28.3714 173.107 28.8686C173.647 29.3657 174.201 30.0343 174.77 30.8743C175.371 31.6638 175.952 32.5665 176.514 33.5823C177.067 34.5563 177.569 35.4973 178.021 36.4053C178.464 37.2716 178.822 38.0466 179.096 38.7302C179.403 39.3634 179.57 39.7427 179.596 39.8679ZM193.066 28.5459C193.259 29.4646 193.317 30.3678 193.242 31.2555C193.166 32.1432 192.985 32.944 192.699 33.6579C192.412 34.3717 192.016 34.9778 191.51 35.4761C191.037 35.9239 190.467 36.2178 189.798 36.3578C188.629 36.6027 187.64 36.461 186.832 35.9328C186.024 35.4046 185.34 34.7414 184.781 33.9431C184.263 33.1361 183.85 32.3073 183.541 31.4565C183.265 30.5553 183.079 29.875 182.982 29.4156C182.825 28.664 182.754 27.8069 182.771 26.8444C182.82 25.8314 182.95 24.8889 183.159 24.0167C183.411 23.1358 183.73 22.3714 184.118 21.7235C184.505 21.0757 184.97 20.6949 185.513 20.5812C185.638 20.555 185.835 20.5574 186.103 20.5884C186.413 20.6107 186.731 20.6747 187.059 20.7806C187.386 20.8864 187.68 21.0427 187.942 21.2495C188.245 21.4476 188.473 21.7049 188.626 22.0215C189.095 21.9671 189.589 22.0379 190.11 22.234C190.63 22.4301 190.929 22.6073 191.006 22.7656C191.567 23.7814 192.003 24.8234 192.314 25.8917C192.667 26.9512 192.918 27.836 193.066 28.5459ZM190.011 28.0088C189.88 27.3824 189.682 26.7482 189.417 26.1063C189.143 25.4226 188.743 24.7652 188.219 24.1339C188.144 24.1932 188.044 24.2359 187.919 24.2622C187.752 24.2972 187.601 24.3069 187.467 24.2914C187.375 24.2671 187.287 24.2637 187.204 24.2812C186.702 24.3862 186.336 24.6155 186.105 24.969C185.865 25.2808 185.71 25.6839 185.639 26.1782C185.601 26.6221 185.614 27.0989 185.677 27.6088C185.74 28.1187 185.82 28.6033 185.916 29.0627C186.013 29.522 186.143 30.0397 186.307 30.6156C186.463 31.1497 186.655 31.6542 186.886 32.1291C187.158 32.5952 187.458 32.99 187.788 33.3133C188.108 33.5949 188.477 33.692 188.895 33.6045C189.312 33.5171 189.624 33.2339 189.828 32.7551C190.025 32.2345 190.145 31.6644 190.19 31.0447C190.234 30.4251 190.22 29.8395 190.148 29.2878C190.11 28.6857 190.064 28.2593 190.011 28.0088ZM219.423 29.1065C219.475 29.3571 219.444 29.6252 219.329 29.9107C219.215 30.1963 219.054 30.4697 218.847 30.731C218.682 30.9835 218.471 31.2239 218.214 31.4522C217.989 31.6299 217.773 31.7407 217.564 31.7844C216.854 31.9331 215.905 31.9794 214.716 31.9232C213.56 31.8166 212.578 31.4991 211.77 30.9709C210.912 30.4097 210.11 29.7057 209.366 28.8589C208.613 27.9704 207.702 26.6356 206.631 24.8546C206.557 26.7882 206.394 28.7185 206.144 30.6454C205.936 32.5636 205.321 34.4143 204.299 36.1976C204.233 36.2986 204.117 36.3666 203.949 36.4016C203.657 36.4628 203.313 36.3823 202.918 36.1599C202.523 35.9376 202.294 35.6802 202.233 35.3879C202.172 35.0956 201.99 34.4362 201.688 33.4097C201.419 32.3326 201.107 31.1556 200.752 29.8785C200.389 28.5597 200.025 27.2408 199.662 25.922C199.332 24.5526 199.075 23.4295 198.891 22.5525C198.803 22.1349 198.711 21.5876 198.612 20.9107C198.505 20.1921 198.504 19.5603 198.608 19.0154C198.632 18.9232 198.743 18.7255 198.941 18.4225C199.181 18.1107 199.468 17.9198 199.802 17.8498C200.094 17.7886 200.301 17.9415 200.421 18.3086C200.542 18.6757 200.65 19.0889 200.746 19.5483L202.819 29.4455C202.863 29.6543 202.945 29.9423 203.066 30.3094C203.228 30.6677 203.389 30.9173 203.55 31.0581C203.799 29.9596 203.972 28.7029 204.068 27.2878C204.197 25.8223 204.322 24.4446 204.444 23.1548C204.558 21.8233 204.715 20.7005 204.916 19.7866C205.108 18.8309 205.392 18.3137 205.768 18.235C206.185 18.1475 206.537 18.1611 206.823 18.2756C207.108 18.3902 207.387 18.6805 207.659 19.1467C208.121 20.314 208.516 21.3648 208.842 22.299C209.16 23.1915 209.481 23.9961 209.806 24.7128C210.172 25.4207 210.592 26.0738 211.066 26.672C211.573 27.2197 212.197 27.6994 212.937 28.111C213.635 28.5315 214.365 28.7926 215.128 28.8945C215.932 28.9876 216.606 28.9773 217.148 28.8636C217.399 28.8111 217.662 28.7125 217.937 28.5677C218.203 28.3812 218.398 28.2749 218.524 28.2486C218.691 28.2136 218.867 28.3292 219.054 28.5953C219.282 28.8526 219.405 29.023 219.423 29.1065Z" fill="#F1ECE6"/>
</svg>
