<svg width="96" height="96" viewBox="0 0 96 96" fill="none" xmlns="http://www.w3.org/2000/svg">
<path d="M95.5685 54.7929C92.0805 43.8572 84.4704 32.2875 74.165 21.8273C63.701 11.5255 52.1272 3.91807 41.1876 0.431316C36.9069 -0.995082 32.3091 1.22376 30.5651 5.50295L0.600048 84.4303C-0.668313 87.6001 0.124413 91.0869 2.50259 93.4642C4.08804 95.0491 6.30767 96 8.5273 96C9.47857 96 10.5884 95.8415 11.5397 95.366L63.701 75.555H63.8595L90.4951 65.4117C94.7758 63.6683 96.9954 59.0721 95.5685 54.7929ZM9.00294 88.7095C8.21021 89.0265 7.73458 88.7095 7.57603 88.3925C7.41749 88.2341 6.94185 87.6001 7.25894 86.9661L12.9666 71.7512C14.8691 74.4455 18.04 76.1889 21.528 76.1889C27.2356 76.1889 31.992 71.5927 31.992 65.7287C31.992 60.0231 27.3942 55.2684 21.528 55.2684C20.7353 55.2684 19.9425 55.4269 19.1498 55.5854L30.0894 26.8989C31.3578 27.6914 32.7847 28.6423 34.2116 29.5932C32.1505 31.4951 30.8822 34.1894 30.8822 37.2007C30.8822 42.9063 35.48 47.6609 41.3461 47.6609C45.1512 47.6609 48.4807 45.6006 50.3832 42.4308C57.0421 48.7704 63.701 56.3778 69.4086 65.5702L67.8232 66.2041C67.189 60.974 62.7497 57.0118 57.5177 57.0118C51.8101 57.0118 47.0537 61.608 47.0537 67.472C47.0537 69.6909 47.6879 71.7512 48.9563 73.4946L9.00294 88.7095ZM18.1985 65.8871C18.1985 64.1438 19.6255 62.5589 21.528 62.5589C23.272 62.5589 24.8574 63.9853 24.8574 65.8871C24.8574 67.6305 23.4305 69.2154 21.528 69.2154C19.784 69.2154 18.1985 67.6305 18.1985 65.8871ZM40.3949 34.3479C41.6632 35.4573 43.0901 36.4082 44.517 37.6762C44.517 39.4195 43.0901 40.8459 41.1876 40.8459C39.4436 40.8459 37.8581 39.4195 37.8581 37.5177C37.8581 35.9328 38.968 34.6649 40.3949 34.3479ZM56.2494 70.8003C54.981 70.3248 54.0297 69.2154 54.0297 67.6305C54.0297 65.8871 55.4566 64.3023 57.3592 64.3023C59.1032 64.3023 60.6886 65.7287 60.6886 67.6305C60.6886 68.2645 60.5301 68.7399 60.213 69.2154L56.2494 70.8003ZM87.9584 58.5967L75.9089 63.1928C68.2988 50.6722 59.2617 40.6874 50.2247 33.08C50.0661 33.08 50.0661 32.9215 49.9076 32.9215C47.6879 31.0196 45.4683 29.2763 43.4072 27.6914C39.6021 24.8386 36.1141 22.4612 32.6261 20.4009L37.224 8.19726C37.3825 7.7218 38.0167 7.24633 38.4923 7.24633C38.6509 7.24633 38.8094 7.24633 38.9679 7.24633C48.6392 10.2576 59.5788 17.3896 68.933 26.8989C78.2871 36.2498 85.5802 47.344 88.5926 56.8533C89.0682 57.6457 88.5926 58.4382 87.9584 58.5967Z" fill="#173742"/>
</svg>
