<svg width="97" height="81" viewBox="0 0 97 81" fill="none" xmlns="http://www.w3.org/2000/svg">
<path d="M96.5259 73.7292L79.4876 4.18212C78.868 1.85872 76.5446 0 74.0664 0H22.6418C20.1635 0 17.8401 1.70383 17.2205 4.18212L0.182296 73.7292C-0.282384 75.433 0.182296 77.1368 1.11166 78.376C2.19591 79.77 3.74484 80.5445 5.44867 80.5445H91.2595C92.9633 80.5445 94.5123 79.77 95.5965 78.376C96.6808 76.9819 96.9906 75.2781 96.5259 73.7292ZM48.3541 63.1964C46.4954 63.1964 44.9464 64.7454 44.9464 66.6041V73.4194H20.0086L35.6528 6.97019H44.9464V7.12509V14.7149C44.9464 16.5736 46.4954 18.1225 48.3541 18.1225C50.2128 18.1225 51.7617 16.5736 51.7617 14.7149V7.12509V6.97019H61.0553L76.6995 73.4194H51.7617V66.6041C51.7617 64.7454 50.2128 63.1964 48.3541 63.1964ZM23.7261 6.97019H28.3729L12.7286 73.5743H7.30738L23.7261 6.97019ZM83.9795 73.5743L68.3353 6.97019H72.9821L89.4008 73.4194H83.9795V73.5743Z" fill="#173742"/>
<path d="M48.3541 38.1038C50.2128 38.1038 51.7618 36.5549 51.7618 34.6961V27.1064C51.7618 25.2477 50.2128 23.6987 48.3541 23.6987C46.4954 23.6987 44.9465 25.2477 44.9465 27.1064V34.6961C44.9465 36.5549 46.4954 38.1038 48.3541 38.1038Z" fill="#173742"/>
<path d="M51.7618 46.9326C51.7618 45.0738 50.2128 43.5249 48.3541 43.5249C46.4954 43.5249 44.9465 45.0738 44.9465 46.9326V54.5223C44.9465 56.381 46.4954 57.93 48.3541 57.93C50.2128 57.93 51.7618 56.381 51.7618 54.5223V46.9326Z" fill="#173742"/>
</svg>
